# xmcd
#
# Track frame offsets:
# 150
# 15992
# 40180
# 63267
# 84170
# 100187
# 121387
# 143132
# 161142
# 186035
# 207715
# 230007
# 249387
# 271270
#
# Disc length: 3913 seconds
#
#
# Revision: 2
# Processed by: cddbd v1.5.2PL0 Copyright (c) Steve Scherf et al.
# Submitted via: FreeRIP 2.80 
#
DISCID=b90f470e
DTITLE=Various Artist - The Best of Soul
DYEAR=2000
DGENRE=Soul
TTITLE0=Destiny's Child - No, No, No
TTITLE1=3T - Anything
TTITLE2=The Jacksons - 2300 Jackson Street
TTITLE3=Allure - All Cried Out
TTITLE4=Xscape - Feels So Good
TTITLE5=Trey Lorenz - Someone To Hold
TTITLE6=Billy Paul - Me And Mrs. Jones
TTITLE7=Flip Da Scrip - I Never Told You
TTITLE8=The Chimes - I Still Naven't Found What I'm Looking For
TTITLE9=Misty Oldland - A Fair Affair (Je T'aime)
TTITLE10=Philip Bailey - Walking On The Chinese Wall
TTITLE11=Pras - Blue Angel
TTITLE12=Des'ree - I'm Kissing You
TTITLE13=Babyface - Every Time I Close My Eyes
EXTD=
EXTT0=
EXTT1=
EXTT2=
EXTT3=
EXTT4=
EXTT5=
EXTT6=
EXTT7=
EXTT8=
EXTT9=
EXTT10=
EXTT11=
EXTT12=
EXTT13=
PLAYORDER=
